HIERARCHY
ROOT Hips
{
  OFFSET -0.786334 87.5765 1.09603
  CHANNELS 6 Xposition Yposition Zposition Zrotation Xrotation Yrotation
  JOINT Spine
  {
    OFFSET 0 9.9235 -1.2273
    CHANNELS 6 Xposition Yposition Zposition Zrotation Xrotation Yrotation
    JOINT Spine1
    {
      OFFSET -0.0001 11.6454 -1.4223
      CHANNELS 6 Xposition Yposition Zposition Zrotation Xrotation Yrotation
      JOINT Spine2
      {
        OFFSET 0.0001 13.3602 -1.6265
        CHANNELS 6 Xposition Yposition Zposition Zrotation Xrotation Yrotation
        JOINT Neck
        {
          OFFSET 0 15.0325 0.7929
          CHANNELS 6 Xposition Yposition Zposition Zrotation Xrotation Yrotation
          JOINT Head
          {
            OFFSET 0 10.3218 3.1424
            CHANNELS 6 Xposition Yposition Zposition Zrotation Xrotation Yrotation
            JOINT HeadTop_End
            {
              OFFSET 0.0002 18.4747 6.6364
              CHANNELS 6 Xposition Yposition Zposition Zrotation Xrotation Yrotation
              End Site
              {
                OFFSET 0 0 0
              }
            }
            JOINT LeftEye
            {
              OFFSET 2.9479 7.6817 9.1207
              CHANNELS 6 Xposition Yposition Zposition Zrotation Xrotation Yrotation
              End Site
              {
                OFFSET 0 0 0
              }
            }
            JOINT RightEye
            {
              OFFSET -2.9445 7.6817 9.1205
              CHANNELS 6 Xposition Yposition Zposition Zrotation Xrotation Yrotation
              End Site
              {
                OFFSET 0 0 0
              }
            }
          }
        }
        JOINT LeftShoulder
        {
          OFFSET 6.1058 9.1104 0.7056
          CHANNELS 6 Xposition Yposition Zposition Zrotation Xrotation Yrotation
          JOINT LeftArm
          {
            OFFSET 12.655 -0.2659 -2.6009
            CHANNELS 6 Xposition Yposition Zposition Zrotation Xrotation Yrotation
            JOINT LeftForeArm
            {
              OFFSET 27.4047 0 0
              CHANNELS 6 Xposition Yposition Zposition Zrotation Xrotation Yrotation
              JOINT LeftHand
              {
                OFFSET 27.6145 0 0
                CHANNELS 6 Xposition Yposition Zposition Zrotation Xrotation Yrotation
                JOINT LeftHandMiddle1
                {
                  OFFSET 12.7755 0 0
                  CHANNELS 6 Xposition Yposition Zposition Zrotation Xrotation Yrotation
                  JOINT LeftHandMiddle2
                  {
                    OFFSET 3.614 0 0
                    CHANNELS 6 Xposition Yposition Zposition Zrotation Xrotation Yrotation
                    JOINT LeftHandMiddle3
                    {
                      OFFSET 3.4598 0 0
                      CHANNELS 6 Xposition Yposition Zposition Zrotation Xrotation Yrotation
                      End Site
                      {
                        OFFSET 3.6802 0 0
                      }
                    }
                  }
                }
                JOINT LeftHandThumb1
                {
                  OFFSET 3.7888 -2.167 3.0031
                  CHANNELS 6 Xposition Yposition Zposition Zrotation Xrotation Yrotation
                  JOINT LeftHandThumb2
                  {
                    OFFSET 3.6754 -2.122 2.122
                    CHANNELS 6 Xposition Yposition Zposition Zrotation Xrotation Yrotation
                    JOINT LeftHandThumb3
                    {
                      OFFSET 3.3944 -1.9597 1.9598
                      CHANNELS 6 Xposition Yposition Zposition Zrotation Xrotation Yrotation
                      End Site
                      {
                        OFFSET 2.6794 -1.5469 1.5469
                      }
                    }
                  }
                }
                JOINT LeftHandIndex1
                {
                  OFFSET 12.2666 -0.2317 2.8221
                  CHANNELS 6 Xposition Yposition Zposition Zrotation Xrotation Yrotation
                  JOINT LeftHandIndex2
                  {
                    OFFSET 3.892 0 0
                    CHANNELS 6 Xposition Yposition Zposition Zrotation Xrotation Yrotation
                    JOINT LeftHandIndex3
                    {
                      OFFSET 3.4152 0 0
                      CHANNELS 6 Xposition Yposition Zposition Zrotation Xrotation Yrotation
                      End Site
                      {
                        OFFSET 3.078 0 0
                      }
                    }
                  }
                }
                JOINT LeftHandRing1
                {
                  OFFSET 12.147 0.0099 -2.2166
                  CHANNELS 6 Xposition Yposition Zposition Zrotation Xrotation Yrotation
                  JOINT LeftHandRing2
                  {
                    OFFSET 3.6012 0 0
                    CHANNELS 6 Xposition Yposition Zposition Zrotation Xrotation Yrotation
                    JOINT LeftHandRing3
                    {
                      OFFSET 3.3073 0 0
                      CHANNELS 6 Xposition Yposition Zposition Zrotation Xrotation Yrotation
                      End Site
                      {
                        OFFSET 3.6601 0 0
                      }
                    }
                  }
                }
                JOINT LeftHandPinky1
                {
                  OFFSET 10.9082 -0.2264 -4.7258
                  CHANNELS 6 Xposition Yposition Zposition Zrotation Xrotation Yrotation
                  JOINT LeftHandPinky2
                  {
                    OFFSET 4.1367 0 0
                    CHANNELS 6 Xposition Yposition Zposition Zrotation Xrotation Yrotation
                    JOINT LeftHandPinky3
                    {
                      OFFSET 2.5948 0 0
                      CHANNELS 6 Xposition Yposition Zposition Zrotation Xrotation Yrotation
                      End Site
                      {
                        OFFSET 2.9239 0 0
                      }
                    }
                  }
                }
              }
            }
          }
        }
        JOINT RightShoulder
        {
          OFFSET -6.1057 9.1105 0.7056
          CHANNELS 6 Xposition Yposition Zposition Zrotation Xrotation Yrotation
          JOINT RightArm
          {
            OFFSET -12.655 -0.266 -2.6009
            CHANNELS 6 Xposition Yposition Zposition Zrotation Xrotation Yrotation
            JOINT RightForeArm
            {
              OFFSET -27.4047 0 0
              CHANNELS 6 Xposition Yposition Zposition Zrotation Xrotation Yrotation
              JOINT RightHand
              {
                OFFSET -27.6145 0 0
                CHANNELS 6 Xposition Yposition Zposition Zrotation Xrotation Yrotation
                JOINT RightHandMiddle1
                {
                  OFFSET -12.7755 0 0
                  CHANNELS 6 Xposition Yposition Zposition Zrotation Xrotation Yrotation
                  JOINT RightHandMiddle2
                  {
                    OFFSET -3.614 0 0
                    CHANNELS 6 Xposition Yposition Zposition Zrotation Xrotation Yrotation
                    JOINT RightHandMiddle3
                    {
                      OFFSET -3.4598 0 0
                      CHANNELS 6 Xposition Yposition Zposition Zrotation Xrotation Yrotation
                      End Site
                      {
                        OFFSET -3.6802 0 0
                      }
                    }
                  }
                }
                JOINT RightHandThumb1
                {
                  OFFSET -3.7888 -2.167 3.0031
                  CHANNELS 6 Xposition Yposition Zposition Zrotation Xrotation Yrotation
                  JOINT RightHandThumb2
                  {
                    OFFSET -3.6754 -2.122 2.122
                    CHANNELS 6 Xposition Yposition Zposition Zrotation Xrotation Yrotation
                    JOINT RightHandThumb3
                    {
                      OFFSET -3.3944 -1.9597 1.9598
                      CHANNELS 6 Xposition Yposition Zposition Zrotation Xrotation Yrotation
                      End Site
                      {
                        OFFSET -2.6794 -1.5469 1.5469
                      }
                    }
                  }
                }
                JOINT RightHandIndex1
                {
                  OFFSET -12.2666 -0.2317 2.8221
                  CHANNELS 6 Xposition Yposition Zposition Zrotation Xrotation Yrotation
                  JOINT RightHandIndex2
                  {
                    OFFSET -3.892 0 0
                    CHANNELS 6 Xposition Yposition Zposition Zrotation Xrotation Yrotation
                    JOINT RightHandIndex3
                    {
                      OFFSET -3.4152 0 0
                      CHANNELS 6 Xposition Yposition Zposition Zrotation Xrotation Yrotation
                      End Site
                      {
                        OFFSET -3.078 0 0
                      }
                    }
                  }
                }
                JOINT RightHandRing1
                {
                  OFFSET -12.147 0.0099 -2.2166
                  CHANNELS 6 Xposition Yposition Zposition Zrotation Xrotation Yrotation
                  JOINT RightHandRing2
                  {
                    OFFSET -3.6012 0 0
                    CHANNELS 6 Xposition Yposition Zposition Zrotation Xrotation Yrotation
                    JOINT RightHandRing3
                    {
                      OFFSET -3.3073 0 0
                      CHANNELS 6 Xposition Yposition Zposition Zrotation Xrotation Yrotation
                      End Site
                      {
                        OFFSET -3.6601 0 0
                      }
                    }
                  }
                }
                JOINT RightHandPinky1
                {
                  OFFSET -10.9082 -0.2264 -4.7258
                  CHANNELS 6 Xposition Yposition Zposition Zrotation Xrotation Yrotation
                  JOINT RightHandPinky2
                  {
                    OFFSET -4.1367 0 0
                    CHANNELS 6 Xposition Yposition Zposition Zrotation Xrotation Yrotation
                    JOINT RightHandPinky3
                    {
                      OFFSET -2.5948 0 0
                      CHANNELS 6 Xposition Yposition Zposition Zrotation Xrotation Yrotation
                      End Site
                      {
                        OFFSET -2.9239 0 0
                      }
                    }
                  }
                }
              }
            }
          }
        }
      }
    }
  }
  JOINT RightUpLeg
  {
    OFFSET -9.1245 -6.6564 -0.0554
    CHANNELS 6 Xposition Yposition Zposition Zrotation Xrotation Yrotation
    JOINT RightLeg
    {
      OFFSET -0.2447 -40.5954 -0.5145
      CHANNELS 6 Xposition Yposition Zposition Zrotation Xrotation Yrotation
      JOINT RightFoot
      {
        OFFSET 0.2447 -42.0479 -2.0602
        CHANNELS 6 Xposition Yposition Zposition Zrotation Xrotation Yrotation
        JOINT RightToeBase
        {
          OFFSET -0.3734 -10.4922 12.6407
          CHANNELS 6 Xposition Yposition Zposition Zrotation Xrotation Yrotation
          End Site
          {
            OFFSET 0 0 9.9925
          }
        }
      }
    }
  }
  JOINT LeftUpLeg
  {
    OFFSET 9.1245 -6.6564 -0.0554
    CHANNELS 6 Xposition Yposition Zposition Zrotation Xrotation Yrotation
    JOINT LeftLeg
    {
      OFFSET 0.2447 -40.5954 0
      CHANNELS 6 Xposition Yposition Zposition Zrotation Xrotation Yrotation
      JOINT LeftFoot
      {
        OFFSET -0.2447 -42.048 -2.0576
        CHANNELS 6 Xposition Yposition Zposition Zrotation Xrotation Yrotation
        JOINT LeftToeBase
        {
          OFFSET 0.3734 -10.4922 12.6407
          CHANNELS 6 Xposition Yposition Zposition Zrotation Xrotation Yrotation
          End Site
          {
            OFFSET 0 0 9.9925
          }
        }
      }
    }
  }
}
MOTION
Frames:	4
Frame Time:	0.0166667
-0.786334 87.5765 1.09603 17.4003 11.6641 -16.7332 0 9.9235 -1.2273 8.63976 12.159 -1.49729 -0.0001 11.6454 -1.4223 3.54462 8.84655 -2.18873 0.0001 13.3602 -1.6265 3.55886 8.81517 -2.30505 1.42109e-014 15.0325 0.7929 2.85244 -0.856663 -12.3645 0 10.3218 3.1424 4.32394 -24.2933 -62.0543 0.0002 18.4747 6.6364 -1.32417e-031 4.77083e-015 1.59028e-015 2.9479 7.6817 9.1207 -1.32417e-031 4.77083e-015 1.59028e-015 -2.9445 7.6817 9.1205 -1.32417e-031 4.77083e-015 1.59028e-015 6.1058 9.1104 0.7056 -3.38379 1.83578 -12.454 12.655 -0.2659 -2.6009 -45.1005 -7.88167 -21.3211 27.4047 0 -7.10543e-015 -4.39422e-006 2.84212e-006 -46.7615 27.6145 1.42109e-014 -1.77636e-015 -0.790509 -27.6982 -15.9314 12.7755 0 0 -29.4152 -1.86401 4.97533 3.614 -1.42109e-014 0 -45.2739 -1.74089 4.17312 3.4598 7.10543e-015 0 -26.3297 -0.60912 2.60378 3.7888 -2.167 3.0031 -12.8852 -3.79106 13.5908 3.6754 -2.122 2.122 39.7933 16.5481 -6.29825 3.3944 -1.9597 1.9598 10.4059 9.41878 22.4196 12.2666 -0.2317 2.8221 -13.4644 -0.649508 3.67863 3.892 0 7.10543e-015 -29.3323 -0.752837 2.87604 3.4152 7.10543e-015 0 -1.66822 -0.00249152 0.170829 12.147 0.0099 -2.2166 -40.8524 -2.93265 5.67457 3.6012 7.10543e-015 -7.10543e-015 -35.0315 -1.06405 3.37061 3.3073 7.10543e-015 0 -34.6756 -1.04318 3.34066 10.9082 -0.2264 -4.7258 -47.6982 -3.63141 5.98669 4.1367 0 0 -37.6997 -1.22633 3.59106 2.5948 0 0 -45.9301 -1.78903 4.22027 -6.1057 9.1105 0.7056 15.9256 3.30806 10.9927 -12.655 -0.266 -2.6009 46.9488 0.282553 -1.25365 -27.4047 3.55271e-015 1.42109e-014 -8.71982e-006 1.84802e-006 62.2227 -27.6145 1.77636e-015 3.55271e-015 -23.0757 17.7732 30.2236 -12.7755 -7.10543e-015 7.10543e-015 7.24075 -0.277406 -2.8584 -3.614 7.10543e-015 0 25.6378 -0.459363 -2.01864 -3.4598 0 -7.10543e-015 10.324 -0.075536 -0.835956 -3.7888 -2.167 3.0031 14.0082 -5.91072 -10.0873 -3.6754 -2.122 2.122 -41.1499 19.1454 0.184207 -3.3944 -1.9597 1.9598 -15.7751 14.4896 -22.1389 -12.2666 -0.2317 2.8221 -10.9701 0.396269 -1.34311 -3.892 0 0 28.9207 -0.581932 -2.25631 -3.4152 0 0 5.14204 -0.0187679 -0.418064 -12.147 0.0099 -2.2166 20.5342 -1.05323 -3.79224 -3.6012 0 0 22.7114 -0.361771 -1.80119 -3.3073 -3.55271e-015 0 20.9248 -0.307684 -1.66611 -10.9082 -0.2264 -4.7258 27.3182 -1.52719 -4.19345 -4.1367 0 -7.10543e-015 24.199 -0.409986 -1.91236 -2.5948 0 -3.55271e-015 32.4853 -0.730186 -2.50599 -9.1245 -6.6564 -0.0554 7.87198 -59.3753 14.2139 -0.2447 -40.5954 -0.5145 -19.8252 59.3371 16.3329 0.2447 -42.0479 -2.0602 -0.811676 -17.9329 -8.44041 -0.3734 -10.4922 12.6407 7.21556e-008 -1.01216 -5.84836e-006 9.1245 -6.6564 -0.0554 30.5489 -44.4385 33.9153 0.2447 -40.5954 -0.517 -14.5966 50.7299 21.4833 -0.2447 -42.048 -2.0576 -15.0302 10.7419 16.6983 0.3734 -10.4922 12.6407 -5.7964 -3.67986 0.0124171 
-2.14312 88.4982 -0.257319 17.0544 10.9111 -15.806 0 9.9235 -1.2273 7.6146 11.6015 -2.04216 -0.0001 11.6454 -1.4223 2.9933 8.58362 -2.46272 0.0001 13.3602 -1.6265 2.99822 8.55277 -2.57087 0 15.0325 0.7929 2.92061 -0.252559 -12.3015 3.55271e-015 10.3218 3.1424 5.08943 -23.4696 -61.8837 0.0002 18.4747 6.6364 3.18055e-015 -2.38542e-015 1.59028e-015 2.9479 7.6817 9.1207 3.18055e-015 -2.38542e-015 1.59028e-015 -2.9445 7.6817 9.1205 3.18055e-015 -2.38542e-015 1.59028e-015 6.1058 9.1104 0.7056 -1.54099 1.38041 -13.6688 12.655 -0.2659 -2.6009 -42.6443 -7.25062 -22.3186 27.4047 1.42109e-014 1.42109e-014 3.0424e-007 -4.10412e-006 -48.7514 27.6145 1.42109e-014 -1.77636e-015 -2.52528 -26.9119 -16.4105 12.7755 0 -7.10543e-015 -29.5927 -1.87946 4.98777 3.614 0 0 -45.4516 -1.75388 4.18594 3.4598 0 0 -26.5077 -0.61724 2.62014 3.7888 -2.167 3.0031 -12.8852 -3.79105 13.5908 3.6754 -2.122 2.122 39.7933 16.5481 -6.29825 3.3944 -1.9597 1.9598 10.4059 9.41878 22.4196 12.2666 -0.2317 2.8221 -13.8131 -0.672032 3.71041 3.892 0 0 -29.5102 -0.761796 2.89193 3.4152 -7.10543e-015 0 -1.8463 -0.00304799 0.189065 12.147 0.0099 -2.2166 -41.0299 -2.9503 5.68372 3.6012 0 0 -35.2094 -1.07453 3.38554 3.3073 0 0 -34.8535 -1.05358 3.35564 10.9082 -0.2264 -4.7258 -47.8757 -3.65 5.99366 4.1367 -7.10543e-015 7.10543e-015 -37.8775 -1.23751 3.60547 2.5948 7.10543e-015 0 -46.1078 -1.80216 4.23295 -6.1057 9.1105 0.7056 14.4931 2.98563 10.0367 -12.655 -0.266 -2.6009 46.416 3.98735 -2.83568 -27.4047 -3.55271e-015 -1.42109e-014 1.70773e-005 4.87449e-006 64.928 -27.6145 0 0 -23.0858 19.0328 29.9222 -12.7755 7.10543e-015 7.10543e-015 7.6585 -0.298363 -2.89034 -3.614 0 0 26.0558 -0.474223 -2.04928 -3.4598 -3.55271e-015 0 10.7422 -0.0817396 -0.869448 -3.7888 -2.167 3.0031 14.0082 -5.91071 -10.0873 -3.6754 -2.122 2.122 -41.1499 19.1454 0.184189 -3.3944 -1.9597 1.9598 -15.7751 14.4896 -22.1389 -12.2666 -0.2317 2.8221 -10.5519 0.386341 -1.38002 -3.892 -7.10543e-015 0 29.3386 -0.59849 -2.28605 -3.4152 0 -7.10543e-015 5.56034 -0.0219527 -0.451955 -12.147 0.0099 -2.2166 20.9517 -1.08099 -3.81852 -3.6012 0 0 23.1294 -0.375024 -1.83256 -3.3073 0 0 21.3429 -0.319964 -1.69787 -10.9082 -0.2264 -4.7258 27.7355 -1.55787 -4.21628 -4.1367 0 3.55271e-015 24.6171 -0.424059 -1.94336 -2.5948 2.66454e-015 -3.55271e-015 32.9032 -0.748591 -2.53465 -9.1245 -6.6564 -0.0554 7.49259 -57.4363 12.5146 -0.2447 -40.5954 -0.5145 -18.1704 56.2827 14.6535 0.2447 -42.0479 -2.0602 -1.57298 -15.7839 -8.35327 -0.3734 -10.4922 12.6407 -1.1656e-006 -0.491513 -1.59846e-006 9.1245 -6.6564 -0.0554 28.4496 -43.2337 33.3219 0.2447 -40.5954 -0.517 -16.7913 53.5688 23.7903 -0.2447 -42.048 -2.0576 -14.2356 10.4416 14.5308 0.3734 -10.4922 12.6407 -5.87701 -6.84588 -0.0554828 
-3.63446 89.6027 -1.61666 16.6481 10.373 -14.6193 3.55271e-015 9.9235 -1.2273 6.63839 10.919 -2.75784 -0.0001 11.6454 -1.4223 2.48112 8.13147 -2.89205 0.0001 13.3602 -1.6265 2.47551 8.10325 -2.97837 7.10543e-015 15.0325 0.7929 3.23237 0.350035 -12.0658 0 10.3218 3.1424 6.26986 -22.5857 -61.4667 0.0002 18.4747 6.6364 -3.18055e-015 2.78299e-015 -0 2.9479 7.6817 9.1207 -3.18055e-015 2.78299e-015 -0 -2.9445 7.6817 9.1205 -3.18055e-015 2.78299e-015 -0 6.1058 9.1104 0.7056 1.02281 0.884703 -14.7003 12.655 -0.2659 -2.6009 -39.4116 -6.84 -23.4416 27.4047 0 0 1.93741e-006 -6.21364e-006 -50.794 27.6145 -1.42109e-014 -4.44089e-016 -4.64537 -26.1384 -16.911 12.7755 -1.42109e-014 0 -30.0963 -1.92354 5.0228 3.614 0 0 -45.9557 -1.79091 4.2221 3.4598 0 7.10543e-015 -27.0124 -0.640548 2.66632 3.7888 -2.167 3.0031 -12.8852 -3.79105 13.5908 3.6754 -2.122 2.122 39.7933 16.5481 -6.29824 3.3944 -1.9597 1.9598 10.4059 9.41879 22.4196 12.2666 -0.2317 2.8221 -14.8024 -0.736959 3.79976 3.892 1.42109e-014 0 -30.0149 -0.78749 2.93685 3.4152 7.10543e-015 0 -2.35155 -0.004957 0.240787 12.147 0.0099 -2.2166 -41.5333 -3.00043 5.70934 3.6012 0 0 -35.7138 -1.10458 3.42767 3.3073 -7.10543e-015 0 -35.3579 -1.08334 3.39799 10.9082 -0.2264 -4.7258 -48.3792 -3.70283 6.01313 4.1367 -7.10543e-015 0 -38.3818 -1.26947 3.64621 2.5948 0 0 -46.6119 -1.83959 4.26867 -6.1057 9.1105 0.7056 12.7943 2.59327 8.66753 -12.655 -0.266 -2.6009 45.562 7.41389 -4.55882 -27.4047 -3.55271e-015 0 -1.96422e-005 -2.06723e-005 71.577 -27.6145 3.55271e-015 -7.10543e-015 -22.9509 20.3004 29.5625 -12.7755 0 0 8.80397 -0.357093 -2.97717 -3.614 0 0 27.202 -0.516048 -2.13275 -3.4598 0 7.10543e-015 11.889 -0.100075 -0.961 -3.7888 -2.167 3.0031 14.0082 -5.91071 -10.0873 -3.6754 -2.122 2.122 -41.1499 19.1454 0.184192 -3.3944 -1.9597 1.9598 -15.7751 14.4896 -22.1389 -12.2666 -0.2317 2.8221 -9.40534 0.357708 -1.48083 -3.892 -7.10543e-015 0 30.4847 -0.645049 -2.36699 -3.4152 0 7.10543e-015 6.70721 -0.0319266 -0.544807 -12.147 0.0099 -2.2166 22.0962 -1.15809 -3.88954 -3.6012 0 0 24.2758 -0.412562 -1.91805 -3.3073 -3.55271e-015 0 22.4893 -0.354812 -1.7845 -10.9082 -0.2264 -4.7258 28.8797 -1.64281 -4.27768 -4.1367 0 3.55271e-015 25.7634 -0.463796 -2.02786 -2.5948 0 -3.55271e-015 34.0491 -0.800084 -2.61254 -9.1245 -6.6564 -0.0554 7.1311 -55.2081 10.7223 -0.2447 -40.5954 -0.5145 -16.5499 52.428 12.9535 0.2447 -42.0479 -2.0602 -2.12709 -13.4128 -8.27016 -0.3734 -10.4922 12.6407 1.291e-006 0.0845207 8.13912e-006 9.1245 -6.6564 -0.0554 25.5546 -41.8744 32.5237 0.2447 -40.5954 -0.517 -17.8242 55.9896 25.1367 -0.2447 -42.048 -2.0576 -15.0672 9.87296 13.1295 0.3734 -10.4922 12.6407 -4.62521 -9.68556 -0.014803 
-5.14491 90.7937 -2.98291 16.1735 10.0024 -13.4001 -1.77636e-015 9.9235 -1.2273 5.83734 10.169 -3.73561 -0.0001 11.6454 -1.4223 2.11246 7.6054 -3.52534 0.0001 13.3602 -1.6265 2.09633 7.58228 -3.58971 -3.55271e-015 15.0325 0.7929 3.72103 1.03008 -11.8601 0 10.3218 3.1424 7.72308 -21.6089 -60.8239 0.0002 18.4747 6.6364 3.18055e-015 -2.78299e-015 1.59028e-015 2.9479 7.6817 9.1207 3.18055e-015 -2.78299e-015 1.59028e-015 -2.9445 7.6817 9.1205 3.18055e-015 -2.78299e-015 1.59028e-015 6.1058 9.1104 0.7056 3.81837 0.461624 -15.4311 12.655 -0.2659 -2.6009 -36.2678 -6.99617 -24.5715 27.4047 -1.42109e-014 -7.10543e-015 2.01946e-009 -8.77484e-006 -52.6574 27.6145 1.42109e-014 8.88178e-016 -7.16052 -25.2427 -17.4337 12.7755 0 -7.10543e-015 -30.8824 -1.99297 5.07674 3.614 0 -1.42109e-014 -46.7427 -1.84937 4.27789 3.4598 7.10543e-015 0 -27.8003 -0.677733 2.73806 3.7888 -2.167 3.0031 -12.8852 -3.79105 13.5908 3.6754 -2.122 2.122 39.7933 16.5481 -6.29825 3.3944 -1.9597 1.9598 10.4059 9.41879 22.4196 12.2666 -0.2317 2.8221 -16.3465 -0.841353 3.93702 3.892 0 0 -30.8027 -0.828401 3.00652 3.4152 -7.10543e-015 0 -3.14028 -0.00880822 0.321467 12.147 0.0099 -2.2166 -42.3193 -3.07916 5.74845 3.6012 0 7.10543e-015 -36.5013 -1.15217 3.49296 3.3073 7.10543e-015 -7.10543e-015 -36.1454 -1.13054 3.46355 10.9082 -0.2264 -4.7258 -49.1653 -3.78567 6.0426 4.1367 0 7.10543e-015 -39.1692 -1.32006 3.70918 2.5948 -7.10543e-015 -7.10543e-015 -47.3989 -1.89869 4.32381 -6.1057 9.1105 0.7056 11.338 2.22498 7.01782 -12.655 -0.266 -2.6009 44.4526 10.6832 -6.46232 -27.4047 0 0 -8.01465e-006 -5.53779e-006 78.906 -27.6145 -3.55271e-015 7.10543e-015 -22.6498 21.4508 29.2602 -12.7755 0 7.10543e-015 10.5152 -0.448006 -3.10467 -3.614 0 -7.10543e-015 28.9145 -0.58168 -2.25588 -3.4598 0 -7.10543e-015 13.6024 -0.130835 -1.09706 -3.7888 -2.167 3.0031 14.0082 -5.91071 -10.0873 -3.6754 -2.122 2.122 -41.1499 19.1454 0.184184 -3.3944 -1.9597 1.9598 -15.7751 14.4896 -22.1389 -12.2666 -0.2317 2.8221 -7.69228 0.311177 -1.63035 -3.892 -1.42109e-014 0 32.1969 -0.71762 -2.48615 -3.4152 0 0 8.42077 -0.0502898 -0.683095 -12.147 0.0099 -2.2166 23.8062 -1.27587 -3.99271 -3.6012 -7.10543e-015 0 25.9885 -0.471818 -2.04435 -3.3073 3.55271e-015 0 24.2021 -0.410102 -1.91258 -10.9082 -0.2264 -4.7258 30.5893 -1.77197 -4.36627 -4.1367 0 0 27.4759 -0.526306 -2.15257 -2.5948 -1.77636e-015 -3.55271e-015 35.761 -0.879907 -2.72697 -9.1245 -6.6564 -0.0554 6.89143 -52.7664 8.86512 -0.2447 -40.5954 -0.5145 -15.1072 47.832 11.4215 0.2447 -42.0479 -2.0602 -2.62661 -10.8592 -8.16204 -0.3734 -10.4922 12.6407 -1.14175e-006 0.549097 -8.32179e-006 9.1245 -6.6564 -0.0554 22.776 -40.4087 31.7103 0.2447 -40.5954 -0.517 -18.6372 57.6775 26.1878 -0.2447 -42.048 -2.0576 -15.8935 10.0547 13.0968 0.3734 -10.4922 12.6407 -3.98389 -11.7239 0.0111396 
